# xmcd CD database file
#
# Track frame offsets:
#	187
#	14992
#	33630
#	48585
#	71267
#	90727
#	107360
#	122347
#	140487
#	157960
#
# Disc length: 2282 seconds
#
# Revision: 0
# Processed by: cddbd v1.5.1PL0 Copyright (c) Steve Scherf et al.
# Submitted via: CDex 1.51
#
DISCID=8008e80a
DTITLE=荻野目洋子 - CD FILE vol.1
DYEAR=1900
DGENRE=JPop
TTITLE0=未来航海-Sailing-
TTITLE1=流星少女
TTITLE2=さよならから始まる物語
TTITLE3=夏の微笑
TTITLE4=ディセンバー・メモリー
TTITLE5=雨とジャスミン
TTITLE6=無国籍ロマンス
TTITLE7=たそがれエンジェル
TTITLE8=恋してカリビアン
TTITLE9=愛のタイムカプセル
EXTD=
EXTT0=
EXTT1=
EXTT2=
EXTT3=
EXTT4=
EXTT5=
EXTT6=
EXTT7=
EXTT8=
EXTT9=
PLAYORDER=
